<?xml version="1.0" encoding="UTF-8"?>
<!DOCTYPE svg PUBLIC "-//W3C//DTD SVG 1.1//EN" "http://www.w3.org/Graphics/SVG/1.1/DTD/svg11.dtd">
<!-- Creator: CorelDRAW 2020 (64 Bit) -->
<svg xmlns="http://www.w3.org/2000/svg" xml:space="preserve" width="54px" height="34px" version="1.1" style="shape-rendering:geometricPrecision; text-rendering:geometricPrecision; image-rendering:optimizeQuality; fill-rule:evenodd; clip-rule:evenodd"
viewBox="0 0 23.72 14.7"
 xmlns:xlink="http://www.w3.org/1999/xlink"
 xmlns:xodm="http://www.corel.com/coreldraw/odm/2003">
 <defs>
  <style type="text/css">
   <![CDATA[
    .fil0 {fill:#EDEDEB;fill-rule:nonzero}
   ]]>
  </style>
 </defs>
 <g id="Camada_x0020_1">
  <metadata id="CorelCorpID_0Corel-Layer"/>
  <path class="fil0" d="M11.23 7.58c0,0 0,0 -0.01,0l-1.38 0c-0.25,0 -0.49,-0.13 -0.61,-0.35l-0.02 -0.01c-0.11,-0.21 -0.11,-0.48 0,-0.69l0.37 -0.67 1.64 0c0.01,0 0.01,0 0.01,0l0 1.72zm10.16 6.22l0.47 -0.07c0.02,0.18 0.1,0.33 0.22,0.43 0.12,0.1 0.29,0.15 0.5,0.15 0.22,0 0.39,-0.04 0.49,-0.13 0.11,-0.09 0.16,-0.2 0.16,-0.32 0,-0.1 -0.05,-0.19 -0.14,-0.25 -0.07,-0.04 -0.23,-0.09 -0.49,-0.16 -0.35,-0.09 -0.59,-0.16 -0.72,-0.23 -0.14,-0.06 -0.24,-0.15 -0.31,-0.26 -0.07,-0.12 -0.1,-0.24 -0.1,-0.38 0,-0.12 0.03,-0.24 0.08,-0.35 0.06,-0.1 0.14,-0.19 0.24,-0.26 0.07,-0.05 0.17,-0.1 0.3,-0.14 0.13,-0.04 0.26,-0.06 0.41,-0.06 0.22,0 0.41,0.04 0.58,0.1 0.16,0.06 0.29,0.15 0.37,0.26 0.07,0.11 0.13,0.25 0.16,0.43l-0.47 0.07c-0.02,-0.15 -0.08,-0.26 -0.18,-0.34 -0.1,-0.09 -0.24,-0.13 -0.43,-0.13 -0.21,0 -0.37,0.04 -0.46,0.11 -0.1,0.07 -0.14,0.16 -0.14,0.26 0,0.06 0.02,0.11 0.05,0.16 0.04,0.05 0.1,0.09 0.19,0.13 0.04,0.02 0.18,0.06 0.42,0.12 0.33,0.09 0.57,0.16 0.7,0.22 0.13,0.06 0.24,0.14 0.31,0.25 0.08,0.11 0.12,0.24 0.12,0.4 0,0.16 -0.05,0.31 -0.14,0.45 -0.09,0.14 -0.23,0.25 -0.4,0.33 -0.18,0.07 -0.37,0.11 -0.59,0.11 -0.37,0 -0.65,-0.08 -0.84,-0.23 -0.19,-0.15 -0.31,-0.37 -0.36,-0.67zm-0.91 -0.07l0.49 0.07c-0.07,0.28 -0.22,0.5 -0.42,0.66 -0.21,0.16 -0.48,0.24 -0.81,0.24 -0.4,0 -0.73,-0.13 -0.97,-0.38 -0.24,-0.25 -0.36,-0.6 -0.36,-1.06 0,-0.47 0.12,-0.84 0.37,-1.1 0.24,-0.26 0.55,-0.39 0.94,-0.39 0.37,0 0.68,0.13 0.92,0.39 0.23,0.25 0.35,0.61 0.35,1.07 0,0.03 0,0.07 0,0.13l-2.09 0c0.02,0.31 0.1,0.54 0.26,0.71 0.16,0.16 0.35,0.24 0.58,0.24 0.18,0 0.33,-0.05 0.45,-0.14 0.12,-0.09 0.22,-0.24 0.29,-0.44zm-1.55 -0.76l1.56 0c-0.02,-0.24 -0.08,-0.41 -0.18,-0.53 -0.15,-0.18 -0.35,-0.28 -0.59,-0.28 -0.22,0 -0.4,0.08 -0.55,0.22 -0.15,0.15 -0.23,0.34 -0.24,0.59zm-0.83 1.25l0.06 0.42c-0.13,0.02 -0.25,0.04 -0.35,0.04 -0.18,0 -0.31,-0.03 -0.4,-0.08 -0.1,-0.06 -0.17,-0.13 -0.2,-0.22 -0.04,-0.09 -0.06,-0.28 -0.06,-0.56l0 -1.62 -0.35 0 0 -0.37 0.35 0 0 -0.69 0.47 -0.29 0 0.98 0.48 0 0 0.37 -0.48 0 0 1.65c0,0.13 0.01,0.22 0.03,0.26 0.02,0.04 0.04,0.07 0.08,0.09 0.04,0.02 0.09,0.03 0.16,0.03 0.05,0 0.12,0 0.21,-0.01zm-2.84 0.42l0 -2.81 0.43 0 0 0.43c0.11,-0.2 0.21,-0.33 0.3,-0.39 0.09,-0.06 0.2,-0.1 0.31,-0.1 0.16,0 0.32,0.05 0.49,0.16l-0.17 0.43c-0.12,-0.06 -0.23,-0.09 -0.35,-0.09 -0.1,0 -0.2,0.03 -0.28,0.09 -0.08,0.06 -0.14,0.15 -0.17,0.26 -0.06,0.17 -0.08,0.35 -0.08,0.55l0 1.47 -0.48 0zm-1.17 -0.35c-0.17,0.15 -0.34,0.25 -0.51,0.32 -0.16,0.06 -0.34,0.09 -0.52,0.09 -0.31,0 -0.55,-0.08 -0.71,-0.23 -0.17,-0.15 -0.25,-0.34 -0.25,-0.57 0,-0.14 0.03,-0.26 0.09,-0.38 0.06,-0.11 0.15,-0.2 0.25,-0.27 0.1,-0.07 0.21,-0.12 0.34,-0.15 0.09,-0.03 0.23,-0.05 0.42,-0.08 0.39,-0.04 0.67,-0.1 0.85,-0.16 0,-0.06 0,-0.11 0,-0.12 0,-0.19 -0.04,-0.33 -0.13,-0.41 -0.12,-0.11 -0.3,-0.16 -0.54,-0.16 -0.23,0 -0.39,0.04 -0.5,0.12 -0.11,0.08 -0.19,0.21 -0.24,0.41l-0.46 -0.06c0.04,-0.2 0.11,-0.36 0.21,-0.48 0.09,-0.13 0.24,-0.22 0.42,-0.29 0.18,-0.06 0.4,-0.1 0.64,-0.1 0.24,0 0.43,0.03 0.58,0.09 0.15,0.06 0.26,0.13 0.33,0.21 0.07,0.09 0.12,0.2 0.15,0.33 0.02,0.08 0.03,0.22 0.03,0.43l0 0.63c0,0.44 0.01,0.72 0.03,0.84 0.01,0.12 0.05,0.23 0.11,0.34l-0.5 0c-0.04,-0.1 -0.07,-0.22 -0.09,-0.35zm-0.04 -1.06c-0.17,0.07 -0.43,0.13 -0.77,0.18 -0.2,0.03 -0.34,0.06 -0.42,0.1 -0.08,0.03 -0.14,0.08 -0.19,0.15 -0.04,0.07 -0.06,0.14 -0.06,0.23 0,0.12 0.04,0.23 0.14,0.31 0.1,0.08 0.24,0.13 0.42,0.13 0.18,0 0.35,-0.04 0.49,-0.12 0.14,-0.08 0.25,-0.19 0.31,-0.33 0.06,-0.11 0.08,-0.26 0.08,-0.47l0 -0.18zm-2.66 0.38l0.46 0.07c-0.05,0.32 -0.18,0.57 -0.39,0.75 -0.21,0.18 -0.47,0.27 -0.77,0.27 -0.38,0 -0.69,-0.13 -0.92,-0.38 -0.24,-0.25 -0.35,-0.61 -0.35,-1.07 0,-0.31 0.05,-0.57 0.15,-0.8 0.1,-0.22 0.25,-0.39 0.45,-0.51 0.21,-0.11 0.43,-0.17 0.67,-0.17 0.31,0 0.56,0.08 0.75,0.24 0.19,0.15 0.32,0.37 0.37,0.65l-0.46 0.07c-0.04,-0.19 -0.12,-0.33 -0.23,-0.42 -0.12,-0.1 -0.25,-0.15 -0.41,-0.15 -0.24,0 -0.43,0.09 -0.58,0.26 -0.15,0.17 -0.23,0.44 -0.23,0.81 0,0.38 0.07,0.65 0.22,0.82 0.14,0.17 0.33,0.26 0.56,0.26 0.19,0 0.35,-0.06 0.47,-0.17 0.13,-0.11 0.21,-0.29 0.24,-0.53zm-4.73 0.19l0.47 -0.07c0.03,0.18 0.1,0.33 0.22,0.43 0.13,0.1 0.29,0.15 0.51,0.15 0.22,0 0.38,-0.04 0.49,-0.13 0.1,-0.09 0.16,-0.2 0.16,-0.32 0,-0.1 -0.05,-0.19 -0.15,-0.25 -0.06,-0.04 -0.22,-0.09 -0.48,-0.16 -0.35,-0.09 -0.59,-0.16 -0.73,-0.23 -0.13,-0.06 -0.23,-0.15 -0.3,-0.26 -0.07,-0.12 -0.11,-0.24 -0.11,-0.38 0,-0.12 0.03,-0.24 0.09,-0.35 0.06,-0.1 0.13,-0.19 0.23,-0.26 0.08,-0.05 0.18,-0.1 0.31,-0.14 0.12,-0.04 0.26,-0.06 0.41,-0.06 0.22,0 0.41,0.04 0.57,0.1 0.17,0.06 0.29,0.15 0.37,0.26 0.08,0.11 0.14,0.25 0.17,0.43l-0.47 0.07c-0.02,-0.15 -0.08,-0.26 -0.18,-0.34 -0.1,-0.09 -0.25,-0.13 -0.43,-0.13 -0.22,0 -0.37,0.04 -0.47,0.11 -0.09,0.07 -0.14,0.16 -0.14,0.26 0,0.06 0.02,0.11 0.06,0.16 0.04,0.05 0.1,0.09 0.18,0.13 0.05,0.02 0.19,0.06 0.42,0.12 0.34,0.09 0.57,0.16 0.71,0.22 0.13,0.06 0.23,0.14 0.31,0.25 0.08,0.11 0.11,0.24 0.11,0.4 0,0.16 -0.04,0.31 -0.14,0.45 -0.09,0.14 -0.22,0.25 -0.4,0.33 -0.17,0.07 -0.37,0.11 -0.59,0.11 -0.36,0 -0.64,-0.08 -0.83,-0.23 -0.19,-0.15 -0.31,-0.37 -0.37,-0.67zm-0.9 -0.07l0.49 0.07c-0.08,0.28 -0.22,0.5 -0.43,0.66 -0.21,0.16 -0.47,0.24 -0.8,0.24 -0.41,0 -0.73,-0.13 -0.97,-0.38 -0.24,-0.25 -0.36,-0.6 -0.36,-1.06 0,-0.47 0.12,-0.84 0.36,-1.1 0.24,-0.26 0.56,-0.39 0.95,-0.39 0.37,0 0.67,0.13 0.91,0.39 0.24,0.25 0.36,0.61 0.36,1.07 0,0.03 0,0.07 -0.01,0.13l-2.08 0c0.01,0.31 0.1,0.54 0.26,0.71 0.15,0.16 0.35,0.24 0.58,0.24 0.18,0 0.32,-0.05 0.45,-0.14 0.12,-0.09 0.22,-0.24 0.29,-0.44zm-1.56 -0.76l1.56 0c-0.02,-0.24 -0.08,-0.41 -0.17,-0.53 -0.15,-0.18 -0.35,-0.28 -0.59,-0.28 -0.22,0 -0.4,0.08 -0.55,0.22 -0.15,0.15 -0.23,0.34 -0.25,0.59zm-4.2 1.67l0 -3.87 1.33 0c0.31,0 0.53,0.02 0.69,0.05 0.23,0.06 0.41,0.15 0.57,0.28 0.21,0.17 0.36,0.39 0.46,0.66 0.1,0.27 0.15,0.58 0.15,0.92 0,0.3 -0.03,0.56 -0.1,0.79 -0.07,0.22 -0.16,0.41 -0.27,0.56 -0.1,0.15 -0.22,0.27 -0.35,0.35 -0.13,0.09 -0.28,0.15 -0.46,0.19 -0.18,0.05 -0.39,0.07 -0.62,0.07l-1.4 0zm0.51 -0.45l0.83 0c0.25,0 0.45,-0.03 0.6,-0.08 0.14,-0.04 0.26,-0.11 0.35,-0.2 0.12,-0.12 0.21,-0.28 0.28,-0.49 0.07,-0.2 0.1,-0.45 0.1,-0.74 0,-0.41 -0.07,-0.72 -0.2,-0.94 -0.13,-0.22 -0.29,-0.36 -0.48,-0.44 -0.14,-0.05 -0.36,-0.08 -0.66,-0.08l-0.82 0 0 2.97zm8.86 -12.62l0.73 -1.22c0.12,-0.22 0.36,-0.35 0.6,-0.35l0 0c0.25,0 0.49,0.14 0.61,0.35l0.04 0.06 0 0c0.07,0.12 0.23,0.38 0.36,0.6l-0.89 1.48c0,0.01 -0.01,0.01 -0.02,0.02 -0.01,0 -0.02,0 -0.03,-0.01l-1.39 -0.88c-0.02,-0.01 -0.02,-0.03 -0.01,-0.05zm4.27 -1.22l0.5 0.83 0.36 -0.22c0,0 0,0 0,0 0,0 0.01,0 0.01,0.01 0,0 0,0 0,0.01l-0.59 1.5c0,0.01 -0.01,0.01 -0.01,0.01 0,0 0,0 0,0l-1.61 -0.2c0,0 0,0 -0.01,0 0,0 0,-0.01 0,-0.01 0,0 0,0 0,0l0.37 -0.22 -1.11 -1.86c-0.05,-0.07 -0.1,-0.14 -0.17,-0.2l1.65 0c0.25,0 0.48,0.13 0.61,0.35zm1.01 6.88c-0.13,0.22 -0.36,0.35 -0.62,0.35l-0.95 0 0 0.42c0,0 0,0.01 0,0.01 0,0 0,0 -0.01,0 0,0 0,0 0,0 0,0 0,0 0,0l-0.99 -1.29c-0.01,0 -0.01,0 -0.01,0 0,0 0,0 0.01,-0.01l0.99 -1.28c0,0 0,0 0,0 0.01,0 0.01,0 0.02,0 0,0 0,0 0,0l-0.01 0.43c0,0 2.15,0 2.15,0 0.09,0 0.18,-0.02 0.26,-0.04l-0.03 0.05 0 0.01 0 0 -0.81 1.35zm-1.01 -3.16c-0.01,-0.02 0,-0.03 0,-0.04 0,0 0.01,-0.02 0.02,-0.02l1.46 -0.74 0.01 0c0.01,-0.01 0.04,-0.01 0.05,0.01l0.68 1.26c0.11,0.21 0.11,0.48 -0.02,0.69l0 0 0 0.01c-0.13,0.21 -0.36,0.34 -0.61,0.34l-0.77 0 -0.82 -1.51zm-5.62 0.46l0.45 -0.83 -0.37 -0.21c0,0 -0.01,0 -0.01,0 0,0 0,0 0.01,-0.01 0,0 0,0 0,0l1.61 -0.26c0,0 0,0 0,0 0,0 0,0 0,0l0.66 1.48c0,0 0,0.01 0,0.01 0,0 -0.01,0.01 -0.01,0.01 0,0 0,0 0,0l-0.37 -0.21 -1.02 1.89c-0.04,0.08 -0.08,0.16 -0.09,0.25l-0.1 -0.17 -0.02 -0.03 0 0 -0.73 -1.21c-0.13,-0.22 -0.13,-0.48 -0.01,-0.71z"/>
 </g>
</svg>
