<?xml version="1.0" encoding="UTF-8"?>
<!DOCTYPE svg PUBLIC "-//W3C//DTD SVG 1.1//EN" "http://www.w3.org/Graphics/SVG/1.1/DTD/svg11.dtd">
<!-- Creator: CorelDRAW 2020 (64 Bit) -->
<svg xmlns="http://www.w3.org/2000/svg" xml:space="preserve" width="28px" height="34px" version="1.1" style="shape-rendering:geometricPrecision; text-rendering:geometricPrecision; image-rendering:optimizeQuality; fill-rule:evenodd; clip-rule:evenodd"
viewBox="0 0 3.18 3.87"
 xmlns:xlink="http://www.w3.org/1999/xlink"
 xmlns:xodm="http://www.corel.com/coreldraw/odm/2003">
 <defs>
  <style type="text/css">
   <![CDATA[
    .fil0 {fill:#EDEDEB;fill-rule:nonzero}
   ]]>
  </style>
 </defs>
 <g id="Camada_x0020_1">
  <metadata id="CorelCorpID_0Corel-Layer"/>
  <path class="fil0" d="M0 3.85l0 -1 0.13 0 0 1 -0.13 0zm2.7 -2.83l-0.22 -0.22 -0.28 -0.27 -0.5 -0.49c-0.03,-0.03 -0.07,-0.04 -0.1,-0.04 -0.04,0 -0.08,0.01 -0.11,0.04l-1 0.98c-0.04,0.04 -0.05,0.1 -0.03,0.15 0.02,0.05 0.07,0.09 0.13,0.09l0.05 0 0 0.77c0,0.08 0.07,0.14 0.15,0.14l0.45 0 0.06 0 0.06 0 0 -0.09 0 -0.45c0,-0.08 0.06,-0.14 0.14,-0.14l0.19 0c0.08,0 0.14,0.06 0.14,0.14l0 0.47 0 0.07 0.07 0 0.05 0 0.45 0c0.08,0 0.15,-0.06 0.15,-0.14l0 -0.77 0.05 0c0.06,0 0.11,-0.04 0.13,-0.09 0.02,-0.05 0.01,-0.11 -0.03,-0.15zm-2.35 2.83l0 -0.73 0.11 0 0 0.11c0.06,-0.08 0.13,-0.12 0.24,-0.12 0.04,0 0.08,0 0.12,0.02 0.03,0.02 0.06,0.04 0.08,0.06 0.02,0.03 0.03,0.06 0.04,0.09 0,0.03 0,0.07 0,0.12l0 0.45 -0.12 0 0 -0.44c0,-0.05 0,-0.09 -0.01,-0.11 -0.01,-0.03 -0.03,-0.05 -0.05,-0.06 -0.03,-0.02 -0.06,-0.03 -0.09,-0.03 -0.05,0 -0.1,0.02 -0.14,0.05 -0.03,0.04 -0.05,0.1 -0.05,0.19l0 0.4 -0.13 0zm1.65 -0.27l0.12 0.02c-0.01,0.08 -0.05,0.15 -0.1,0.2 -0.05,0.04 -0.12,0.07 -0.2,0.07 -0.1,0 -0.18,-0.04 -0.24,-0.1 -0.06,-0.07 -0.09,-0.16 -0.09,-0.28 0,-0.08 0.01,-0.15 0.04,-0.21 0.02,-0.06 0.06,-0.1 0.12,-0.13 0.05,-0.03 0.11,-0.04 0.17,-0.04 0.08,0 0.14,0.02 0.19,0.06 0.05,0.04 0.09,0.09 0.1,0.17l-0.12 0.02c-0.01,-0.05 -0.03,-0.09 -0.06,-0.12 -0.03,-0.02 -0.06,-0.03 -0.11,-0.03 -0.06,0 -0.11,0.02 -0.15,0.06 -0.04,0.05 -0.06,0.12 -0.06,0.22 0,0.09 0.02,0.17 0.06,0.21 0.04,0.04 0.09,0.07 0.15,0.07 0.05,0 0.09,-0.02 0.12,-0.05 0.03,-0.03 0.05,-0.07 0.06,-0.14zm0.23 -0.59l0 -0.14 0.12 0 0 0.14 -0.12 0zm0 0.86l0 -0.73 0.12 0 0 0.73 -0.12 0zm0.26 -0.36c0,-0.14 0.04,-0.24 0.12,-0.3 0.06,-0.06 0.13,-0.08 0.23,-0.08 0.1,0 0.18,0.03 0.24,0.1 0.06,0.06 0.1,0.15 0.1,0.27 0,0.09 -0.02,0.16 -0.05,0.22 -0.02,0.05 -0.07,0.09 -0.12,0.12 -0.05,0.03 -0.11,0.05 -0.17,0.05 -0.11,0 -0.19,-0.04 -0.25,-0.1 -0.07,-0.07 -0.1,-0.16 -0.1,-0.28zm0.13 0c0,0.09 0.02,0.16 0.06,0.21 0.04,0.04 0.09,0.07 0.16,0.07 0.06,0 0.11,-0.03 0.15,-0.07 0.04,-0.05 0.06,-0.12 0.06,-0.22 0,-0.09 -0.02,-0.16 -0.06,-0.2 -0.04,-0.05 -0.09,-0.07 -0.15,-0.07 -0.07,0 -0.12,0.02 -0.16,0.07 -0.04,0.04 -0.06,0.11 -0.06,0.21zm-1.44 0.36l0 -0.73 0.12 0 0 0.73 -0.12 0zm-0.04 -0.82l0.09 -0.19 0.16 0 -0.15 0.19 -0.1 0z"/>
 </g>
</svg>
