<?xml version="1.0" encoding="UTF-8"?>
<!DOCTYPE svg PUBLIC "-//W3C//DTD SVG 1.1//EN" "http://www.w3.org/Graphics/SVG/1.1/DTD/svg11.dtd">
<!-- Creator: CorelDRAW 2020 (64 Bit) -->
<svg xmlns="http://www.w3.org/2000/svg" xml:space="preserve" width="22px" height="37px" version="1.1" style="shape-rendering:geometricPrecision; text-rendering:geometricPrecision; image-rendering:optimizeQuality; fill-rule:evenodd; clip-rule:evenodd"
viewBox="0 0 8.33 13.86"
 xmlns:xlink="http://www.w3.org/1999/xlink"
 xmlns:xodm="http://www.corel.com/coreldraw/odm/2003">
 <defs>
  <style type="text/css">
   <![CDATA[
    .fil0 {fill:#EDEDEB;fill-rule:nonzero}
   ]]>
  </style>
 </defs>
 <g id="Camada_x0020_1">
  <metadata id="CorelCorpID_0Corel-Layer"/>
  <path class="fil0" d="M2.09 0.8l5.13 -0.04c0.67,-0.01 0.85,-0.01 0.87,0.56 0,0.09 -0.02,0.18 -0.04,0.32 -0.06,0.69 -0.24,1.44 -0.33,2.14 -0.04,0.29 -0.06,0.44 -0.29,0.59 -0.16,0.1 -0.31,0.1 -0.59,0.1 -1.37,-0.01 -2.74,0 -4.11,0l0.07 0.36 3.99 0c0.24,0 0.43,0.2 0.43,0.43 0,0.24 -0.19,0.43 -0.43,0.43l-4.34 0c-0.21,0 -0.39,-0.14 -0.42,-0.35 -0.28,-1.49 -0.53,-2.99 -0.8,-4.48l-0.56 0c-0.23,0 -0.43,-0.19 -0.43,-0.43 0,-0.24 0.2,-0.43 0.43,-0.43l0.92 0c0.22,0 0.4,0.16 0.43,0.38l0.07 0.42zm5.73 11.76c-0.16,0.13 -0.3,0.22 -0.44,0.28 -0.15,0.05 -0.3,0.08 -0.46,0.08 -0.27,0 -0.47,-0.07 -0.62,-0.2 -0.14,-0.13 -0.21,-0.3 -0.21,-0.5 0,-0.12 0.02,-0.23 0.08,-0.33 0.05,-0.1 0.12,-0.18 0.21,-0.24 0.09,-0.06 0.19,-0.1 0.3,-0.13 0.08,-0.02 0.2,-0.04 0.37,-0.07 0.33,-0.03 0.58,-0.08 0.73,-0.14 0,-0.05 0.01,-0.09 0.01,-0.11 0,-0.16 -0.04,-0.28 -0.12,-0.35 -0.11,-0.1 -0.26,-0.14 -0.47,-0.14 -0.2,0 -0.34,0.03 -0.43,0.1 -0.1,0.07 -0.16,0.19 -0.21,0.37l-0.4 -0.06c0.03,-0.18 0.09,-0.32 0.18,-0.42 0.08,-0.11 0.21,-0.19 0.37,-0.25 0.15,-0.06 0.34,-0.09 0.55,-0.09 0.21,0 0.38,0.03 0.51,0.08 0.13,0.05 0.22,0.11 0.28,0.18 0.06,0.08 0.11,0.17 0.13,0.29 0.02,0.07 0.02,0.19 0.02,0.38l0 0.55c0,0.38 0.01,0.63 0.03,0.73 0.02,0.1 0.05,0.2 0.1,0.3l-0.43 0c-0.04,-0.09 -0.07,-0.19 -0.08,-0.31zm-0.03 -0.92c-0.15,0.06 -0.38,0.11 -0.68,0.15 -0.17,0.03 -0.29,0.06 -0.36,0.09 -0.07,0.03 -0.13,0.07 -0.16,0.13 -0.04,0.06 -0.06,0.12 -0.06,0.2 0,0.11 0.04,0.2 0.12,0.27 0.09,0.08 0.21,0.11 0.37,0.11 0.16,0 0.3,-0.03 0.42,-0.1 0.13,-0.07 0.22,-0.17 0.28,-0.29 0.04,-0.09 0.06,-0.23 0.06,-0.41l0.01 -0.15zm-2.61 -1.67l0 -0.49 0.42 0 0 0.49 -0.42 0zm-0.52 3.84l0.08 -0.35c0.08,0.02 0.14,0.04 0.19,0.04 0.09,0 0.15,-0.03 0.19,-0.09 0.04,-0.06 0.06,-0.2 0.06,-0.42l0 -2.58 0.42 0 0 2.59c0,0.3 -0.04,0.51 -0.12,0.63 -0.1,0.15 -0.27,0.23 -0.5,0.23 -0.11,0 -0.21,-0.02 -0.32,-0.05zm-2.24 -2.17c0,-0.45 0.13,-0.79 0.38,-1.01 0.21,-0.18 0.46,-0.27 0.76,-0.27 0.34,0 0.61,0.11 0.82,0.33 0.22,0.22 0.32,0.53 0.32,0.92 0,0.31 -0.04,0.56 -0.14,0.74 -0.09,0.18 -0.23,0.32 -0.41,0.42 -0.18,0.1 -0.37,0.15 -0.59,0.15 -0.34,0 -0.61,-0.11 -0.82,-0.33 -0.21,-0.22 -0.32,-0.54 -0.32,-0.95zm0.42 0c0,0.31 0.07,0.55 0.21,0.7 0.13,0.16 0.31,0.24 0.51,0.24 0.21,0 0.38,-0.08 0.52,-0.24 0.13,-0.15 0.2,-0.39 0.2,-0.71 0,-0.3 -0.07,-0.53 -0.21,-0.69 -0.13,-0.16 -0.3,-0.23 -0.51,-0.23 -0.2,0 -0.38,0.07 -0.51,0.23 -0.14,0.15 -0.21,0.39 -0.21,0.7zm-2.84 1.23l0 -3.39 0.45 0 0 2.99 1.65 0 0 0.4 -2.1 0zm6.63 -6.84c0.34,0 0.62,0.28 0.62,0.62 0,0.34 -0.28,0.62 -0.62,0.62 -0.34,0 -0.62,-0.28 -0.62,-0.62 0,-0.34 0.28,-0.62 0.62,-0.62zm-3.59 0c0.34,0 0.62,0.28 0.62,0.62 0,0.34 -0.28,0.62 -0.62,0.62 -0.34,0 -0.62,-0.28 -0.62,-0.62 0,-0.34 0.28,-0.62 0.62,-0.62zm-0.65 -3.56l1.27 0 0 -0.83 -1.4 0.02 0.13 0.81zm1.6 0l1.29 0 0 -0.84 -1.29 0.01 0 0.83zm1.61 0l1.46 0 0.13 -0.85 -1.59 0.01 0 0.84zm1.41 0.32l-1.41 0 0 0.79c0.45,0 0.88,0.01 1.28,0.04l0.13 -0.83zm-1.73 0l-1.29 0 0 0.81c0.42,-0.01 0.86,-0.02 1.29,-0.02l0 -0.79zm-1.62 0l-1.21 0 0.14 0.83c0.34,0 0.7,-0.01 1.07,-0.02l0 -0.81zm3.31 0.86c0.06,-0.04 0.01,-0.01 -0.03,0 0,0.01 0.01,0.01 0.03,0z"/>
 </g>
</svg>
