<?xml version="1.0" encoding="UTF-8"?>
<!DOCTYPE svg PUBLIC "-//W3C//DTD SVG 1.1//EN" "http://www.w3.org/Graphics/SVG/1.1/DTD/svg11.dtd">
<!-- Creator: CorelDRAW 2020 (64 Bit) -->
<svg xmlns="http://www.w3.org/2000/svg" xml:space="preserve" width="37px" height="34px" version="1.1" style="shape-rendering:geometricPrecision; text-rendering:geometricPrecision; image-rendering:optimizeQuality; fill-rule:evenodd; clip-rule:evenodd"
viewBox="0 0 7.15 6.56"
 xmlns:xlink="http://www.w3.org/1999/xlink"
 xmlns:xodm="http://www.corel.com/coreldraw/odm/2003">
 <defs>
  <style type="text/css">
   <![CDATA[
    .fil0 {fill:#EDEDEB;fill-rule:nonzero}
   ]]>
  </style>
 </defs>
 <g id="Camada_x0020_1">
  <metadata id="CorelCorpID_0Corel-Layer"/>
  <path class="fil0" d="M4.73 3.69l-1.17 0 0.09 -0.47 0.51 0 0.49 -2.75 -0.52 0 0.09 -0.47 1.16 0 -0.65 3.69zm1.39 2.47l0.21 -0.03c0.01,0.08 0.04,0.15 0.09,0.19 0.06,0.04 0.13,0.07 0.23,0.07 0.09,0 0.16,-0.02 0.21,-0.06 0.05,-0.04 0.07,-0.09 0.07,-0.14 0,-0.05 -0.02,-0.09 -0.06,-0.11 -0.03,-0.02 -0.1,-0.04 -0.22,-0.07 -0.15,-0.04 -0.26,-0.08 -0.32,-0.1 -0.05,-0.03 -0.1,-0.07 -0.13,-0.12 -0.03,-0.05 -0.05,-0.11 -0.05,-0.17 0,-0.05 0.02,-0.1 0.04,-0.15 0.03,-0.05 0.06,-0.09 0.1,-0.12 0.04,-0.02 0.08,-0.04 0.14,-0.06 0.05,-0.01 0.11,-0.02 0.18,-0.02 0.1,0 0.18,0.01 0.25,0.04 0.08,0.03 0.13,0.07 0.17,0.11 0.03,0.05 0.05,0.12 0.07,0.2l-0.21 0.02c-0.01,-0.06 -0.03,-0.11 -0.08,-0.15 -0.04,-0.03 -0.1,-0.05 -0.19,-0.05 -0.09,0 -0.16,0.02 -0.2,0.05 -0.04,0.03 -0.06,0.07 -0.06,0.11 0,0.03 0.01,0.05 0.02,0.07 0.02,0.02 0.05,0.04 0.08,0.06 0.02,0.01 0.08,0.02 0.19,0.05 0.15,0.04 0.25,0.07 0.31,0.1 0.06,0.02 0.1,0.06 0.14,0.11 0.03,0.05 0.05,0.11 0.05,0.18 0,0.07 -0.02,0.13 -0.07,0.19 -0.04,0.07 -0.1,0.11 -0.17,0.15 -0.08,0.03 -0.17,0.05 -0.26,0.05 -0.16,0 -0.29,-0.04 -0.37,-0.1 -0.08,-0.07 -0.14,-0.17 -0.16,-0.3zm-1.32 -0.25c0,-0.23 0.06,-0.39 0.19,-0.5 0.1,-0.1 0.23,-0.14 0.39,-0.14 0.17,0 0.31,0.05 0.41,0.17 0.11,0.11 0.17,0.26 0.17,0.46 0,0.15 -0.03,0.28 -0.08,0.37 -0.04,0.09 -0.11,0.16 -0.2,0.21 -0.09,0.05 -0.19,0.08 -0.3,0.08 -0.18,0 -0.32,-0.06 -0.42,-0.17 -0.11,-0.11 -0.16,-0.27 -0.16,-0.48zm0.21 0c0,0.16 0.04,0.28 0.11,0.36 0.07,0.08 0.15,0.12 0.26,0.12 0.1,0 0.19,-0.04 0.26,-0.12 0.07,-0.08 0.1,-0.2 0.1,-0.36 0,-0.16 -0.03,-0.27 -0.1,-0.35 -0.07,-0.08 -0.16,-0.12 -0.26,-0.12 -0.11,0 -0.19,0.04 -0.26,0.12 -0.07,0.08 -0.11,0.2 -0.11,0.35zm-0.34 0.43l0.03 0.19c-0.06,0.01 -0.11,0.02 -0.16,0.02 -0.08,0 -0.13,-0.01 -0.18,-0.04 -0.04,-0.02 -0.07,-0.05 -0.08,-0.09 -0.02,-0.04 -0.03,-0.12 -0.03,-0.25l0 -0.71 -0.15 0 0 -0.17 0.15 0 0 -0.3 0.21 -0.13 0 0.43 0.21 0 0 0.17 -0.21 0 0 0.72c0,0.06 0,0.1 0.01,0.12 0.01,0.01 0.02,0.03 0.04,0.04 0.01,0.01 0.04,0.01 0.07,0.01 0.02,0 0.05,0 0.09,-0.01zm-1.78 0.19l0 -1.24 0.19 0 0 0.18c0.09,-0.13 0.22,-0.2 0.39,-0.2 0.07,0 0.14,0.01 0.21,0.04 0.06,0.03 0.1,0.06 0.14,0.1 0.03,0.05 0.05,0.1 0.06,0.16 0.01,0.04 0.01,0.11 0.01,0.2l0 0.76 -0.21 0 0 -0.75c0,-0.09 -0.01,-0.15 -0.02,-0.19 -0.02,-0.04 -0.05,-0.08 -0.09,-0.1 -0.04,-0.03 -0.09,-0.04 -0.14,-0.04 -0.09,0 -0.17,0.03 -0.23,0.08 -0.07,0.06 -0.1,0.17 -0.1,0.33l0 0.67 -0.21 0zm-1.41 -0.62c0,-0.23 0.07,-0.39 0.2,-0.5 0.1,-0.1 0.23,-0.14 0.38,-0.14 0.17,0 0.31,0.05 0.42,0.17 0.11,0.11 0.16,0.26 0.16,0.46 0,0.15 -0.02,0.28 -0.07,0.37 -0.05,0.09 -0.12,0.16 -0.21,0.21 -0.09,0.05 -0.19,0.08 -0.3,0.08 -0.17,0 -0.31,-0.06 -0.42,-0.17 -0.1,-0.11 -0.16,-0.27 -0.16,-0.48zm0.22 0c0,0.16 0.03,0.28 0.1,0.36 0.07,0.08 0.16,0.12 0.26,0.12 0.11,0 0.2,-0.04 0.27,-0.12 0.06,-0.08 0.1,-0.2 0.1,-0.36 0,-0.16 -0.04,-0.27 -0.11,-0.35 -0.07,-0.08 -0.15,-0.12 -0.26,-0.12 -0.1,0 -0.19,0.04 -0.26,0.12 -0.07,0.08 -0.1,0.2 -0.1,0.35zm-1.7 0.62l0 -1.7 0.64 0c0.12,0 0.2,0 0.26,0.01 0.09,0.02 0.16,0.04 0.21,0.08 0.06,0.04 0.11,0.09 0.14,0.17 0.04,0.07 0.05,0.14 0.05,0.23 0,0.14 -0.04,0.26 -0.13,0.37 -0.1,0.1 -0.26,0.15 -0.51,0.15l-0.43 0 0 0.69 -0.23 0zm0.23 -0.89l0.44 0c0.14,0 0.25,-0.03 0.31,-0.09 0.06,-0.05 0.09,-0.13 0.09,-0.23 0,-0.07 -0.02,-0.13 -0.05,-0.18 -0.04,-0.05 -0.09,-0.08 -0.15,-0.1 -0.03,-0.01 -0.1,-0.01 -0.21,-0.01l-0.43 0 0 0.61zm2.29 -2.42l0.51 0 -0.08 0.47 -1.16 0 0.65 -3.69 1.16 0 -0.08 0.47 -0.51 0 -0.49 2.75z"/>
 </g>
</svg>
